<?xml version="1.0" standalone="no"?><!DOCTYPE svg PUBLIC "-//W3C//DTD SVG 1.1//EN" "http://www.w3.org/Graphics/SVG/1.1/DTD/svg11.dtd"><svg t="1557728237696" class="icon" style="" viewBox="0 0 1205 1024" version="1.1" xmlns="http://www.w3.org/2000/svg" p-id="7518" xmlns:xlink="http://www.w3.org/1999/xlink" width="176.513671875" height="150"><defs><style type="text/css"></style></defs><path d="M124.17281175 102.83947842l977.58224561 0 0 818.32104316-977.58224561 0 0-818.32104316Z" fill="#FFFFFF" p-id="7519"></path><path d="M1150.07482327 0H61.02207227A58.082813 58.082813 0 0 0 2.93925926 58.082813v907.834374a58.082813 58.082813 0 0 0 58.08281301 58.082813h1089.052751a58.082813 58.082813 0 0 0 58.08281399-58.082813V58.082813a58.082813 58.082813 0 0 0-58.08281399-58.082813z m-34.84968801 92.932501v505.538287l-119.156891-161.629949c-90.21712999-103.474532-153.48383399-73.097221-202.09914899 5.372661-41.195235 66.504821-94.51525801 162.631877-94.86375501 163.22722601C642.24226525 699.897901 604.22706427 772.41429399 481.77397326 699.897901c0 0-100.192853-61.52422-158.79841201-100.96245-71.732275-48.26681799-136.581736 84.670221-200.29858199 157.21565501L95.87176026 786.092796V92.932501z" fill="#7F8892" p-id="7520"></path><path d="M373.30431927 311.018945m-139.74724901 0a139.747249 139.747249 0 1 0 279.494498 0 139.747249 139.747249 0 1 0-279.494498 0Z" fill="#7F8892" p-id="7521"></path></svg>